<svg width="1440" height="1036" viewBox="0 0 1440 1036" fill="none" xmlns="http://www.w3.org/2000/svg">
<path opacity="0.010101" d="M469.431 526.77C457.749 516.446 454.976 499.604 462.87 486.932L692.36 118.572C698.68 108.428 710.564 103.104 722.782 104.942L1211.39 178.472C1225.42 180.583 1236.69 191.616 1238.97 205.456L1306.38 614.768C1308.65 628.608 1301.38 641.866 1288.57 647.195L842.643 832.818C831.492 837.46 818.349 835.138 808.998 826.874L469.431 526.77Z" stroke="url(#paint0_linear_137_4)" stroke-opacity="0.57" stroke-width="5.06855"/>
<path opacity="0.020202" d="M463.818 521.665C452.334 511.155 449.9 494.237 458.064 481.668L694.556 117.546C701.077 107.506 713.047 102.365 725.207 104.382L1211.3 185.024C1225.28 187.343 1236.33 198.555 1238.33 212.443L1297.22 621.793C1299.22 635.681 1291.67 648.841 1278.77 653.978L829.972 832.587C818.745 837.055 805.673 834.539 796.5 826.143L463.818 521.665Z" stroke="url(#paint1_linear_137_4)" stroke-opacity="0.57" stroke-width="5.06855"/>
<path opacity="0.030303" d="M458.336 516.564C447.056 505.872 444.964 488.89 453.394 476.429L696.786 116.638C703.507 106.703 715.562 101.746 727.663 103.941L1211.1 191.641C1225.02 194.167 1235.85 205.553 1237.56 219.482L1287.96 628.75C1289.68 642.68 1281.87 655.738 1268.86 660.68L817.354 832.244C806.052 836.539 793.053 833.83 784.059 825.305L458.336 516.564Z" stroke="url(#paint2_linear_137_4)" stroke-opacity="0.57" stroke-width="5.06855"/>
<path opacity="0.040404" d="M452.985 511.466C441.914 500.597 440.167 483.558 448.858 471.213L699.049 115.845C705.968 106.017 718.106 101.245 730.147 103.617L1210.78 198.318C1224.65 201.051 1235.24 212.606 1236.67 226.571L1278.6 635.636C1280.03 649.601 1271.96 662.55 1258.85 667.298L804.793 831.79C793.418 835.911 780.493 833.01 771.679 824.357L452.985 511.466Z" stroke="url(#paint3_linear_137_4)" stroke-opacity="0.57" stroke-width="5.06855"/>
<path opacity="0.050505" d="M447.764 506.374C436.908 495.332 435.509 478.248 444.458 466.025L701.342 115.169C708.457 105.451 720.678 100.862 732.658 103.411L1210.34 205.057C1224.15 207.996 1234.5 219.715 1235.65 233.709L1269.14 642.453C1270.28 656.447 1261.94 669.281 1248.74 673.832L792.29 831.226C780.843 835.174 767.992 832.081 759.362 823.302L447.764 506.374Z" stroke="url(#paint4_linear_137_4)" stroke-opacity="0.57" stroke-width="5.06855"/>
<path opacity="0.0606061" d="M442.673 501.288C432.038 490.079 430.987 472.959 440.191 460.863L703.661 114.608C710.971 105.001 723.275 100.597 735.192 103.322L1209.78 211.853C1223.53 214.997 1233.64 226.874 1234.5 240.891L1259.57 649.195C1260.43 663.211 1251.83 675.926 1238.54 680.28L779.849 830.553C768.331 834.327 755.555 831.044 747.108 822.142L442.673 501.288Z" stroke="url(#paint5_linear_137_4)" stroke-opacity="0.57" stroke-width="5.06855"/>
<path opacity="0.0707071" d="M437.712 496.21C427.303 484.839 426.601 467.694 436.056 455.731L706.006 114.164C713.51 104.669 725.894 100.451 737.748 103.352L1209.1 218.704C1222.78 222.052 1232.65 234.082 1233.22 248.115L1249.91 655.862C1250.48 669.895 1241.62 682.484 1228.25 686.638L767.47 829.771C755.883 833.371 743.184 829.899 734.922 820.875L437.712 496.21Z" stroke="url(#paint6_linear_137_4)" stroke-opacity="0.57" stroke-width="5.06855"/>
<path opacity="0.0808081" d="M432.881 491.146C422.703 479.618 422.352 462.458 432.052 450.634L708.372 113.838C716.068 104.458 728.533 100.426 740.321 103.502L1208.3 225.611C1221.91 229.162 1231.53 241.34 1231.82 255.382L1240.15 662.456C1240.43 676.499 1231.32 688.956 1217.86 692.91L755.157 828.885C743.501 832.31 730.879 828.652 722.805 819.507L432.881 491.146Z" stroke="url(#paint7_linear_137_4)" stroke-opacity="0.57" stroke-width="5.06855"/>
<path opacity="0.0909091" d="M428.178 486.091C418.237 474.413 418.237 457.248 428.178 445.57L710.758 113.627C718.644 104.364 731.188 100.518 742.911 103.769L1207.38 232.57C1220.92 236.323 1230.29 248.643 1230.29 262.689V668.973C1230.29 683.018 1220.92 695.339 1207.38 699.092L742.911 827.892C731.188 831.143 718.644 827.297 710.758 818.034L428.178 486.091Z" stroke="url(#paint8_linear_137_4)" stroke-opacity="0.57" stroke-width="5.06855"/>
<path opacity="0.10101" d="M423.604 481.052C413.904 469.229 414.255 452.068 424.433 440.541L713.162 113.534C721.236 104.39 733.859 100.731 745.514 104.156L1206.34 239.578C1219.8 243.532 1228.91 255.99 1228.62 270.032L1220.33 675.41C1220.05 689.453 1210.43 701.631 1196.82 705.182L730.735 826.796C718.946 829.872 706.481 825.839 698.786 816.46L423.604 481.052Z" stroke="url(#paint9_linear_137_4)" stroke-opacity="0.57" stroke-width="5.06855"/>
<path opacity="0.111111" d="M419.158 476.03C409.704 464.067 410.406 446.922 420.815 435.551L715.579 113.558C723.84 104.534 736.54 101.063 748.127 104.662L1205.17 246.636C1218.55 250.79 1227.41 263.378 1226.83 277.411L1210.29 681.771C1209.71 695.803 1199.85 707.833 1186.16 711.181L718.629 825.599C706.775 828.5 694.39 824.281 686.887 814.787L419.158 476.03Z" stroke="url(#paint10_linear_137_4)" stroke-opacity="0.57" stroke-width="5.06855"/>
<path opacity="0.121212" d="M414.841 471.025C405.637 458.929 406.689 441.809 417.324 430.6L718.009 113.698C726.456 104.796 739.232 101.514 750.749 105.287L1203.88 253.738C1217.17 258.091 1225.77 270.806 1224.91 284.823L1200.15 688.049C1199.29 702.065 1189.18 713.943 1175.43 717.087L706.597 824.301C694.68 827.026 682.377 822.622 675.066 813.015L414.841 471.025Z" stroke="url(#paint11_linear_137_4)" stroke-opacity="0.57" stroke-width="5.06855"/>
<path opacity="0.131313" d="M410.652 466.041C401.702 453.818 403.102 436.733 413.958 425.691L720.448 113.956C729.079 105.178 741.93 102.085 753.377 106.032L1202.47 260.887C1215.66 265.438 1224 278.273 1222.86 292.267L1189.92 694.247C1188.78 708.241 1178.42 719.96 1164.61 722.899L694.641 822.904C682.662 825.453 670.44 820.865 663.325 811.147L410.652 466.041Z" stroke="url(#paint12_linear_137_4)" stroke-opacity="0.57" stroke-width="5.06855"/>
<path opacity="0.141414" d="M406.589 461.077C397.897 448.732 399.644 431.694 410.715 420.824L722.894 114.33C731.708 105.677 744.633 102.775 756.008 106.896L1200.93 268.077C1214.03 272.824 1222.11 285.773 1220.68 299.738L1179.61 700.36C1178.18 714.325 1167.59 725.88 1153.72 728.614L682.763 821.409C670.722 823.781 658.583 819.007 651.665 809.18L406.589 461.077Z" stroke="url(#paint13_linear_137_4)" stroke-opacity="0.57" stroke-width="5.06855"/>
<path opacity="0.151515" d="M402.653 456.135C394.224 443.675 396.315 426.692 407.596 416L725.345 114.818C734.339 106.293 747.338 103.583 758.64 107.878L1199.26 275.306C1212.27 280.248 1220.08 293.305 1218.36 307.235L1169.21 706.389C1167.49 720.318 1156.67 731.704 1142.74 734.23L670.964 819.815C658.863 822.01 646.808 817.053 640.087 807.118L402.653 456.135Z" stroke="url(#paint14_linear_137_4)" stroke-opacity="0.57" stroke-width="5.06855"/>
<path opacity="0.161616" d="M398.843 451.221C390.679 438.652 393.113 421.734 404.597 411.224L727.798 115.425C736.971 107.029 750.042 104.513 761.27 108.981L1197.46 282.575C1210.37 287.711 1217.92 300.872 1215.92 314.761L1158.72 712.333C1156.72 726.222 1145.67 737.434 1131.69 739.753L659.246 818.129C647.086 820.146 635.116 815.006 628.595 804.966L398.843 451.221Z" stroke="url(#paint15_linear_137_4)" stroke-opacity="0.57" stroke-width="5.06855"/>
<path opacity="0.171717" d="M395.159 446.335C387.264 433.662 390.037 416.821 401.719 406.497L730.249 116.147C739.6 107.883 752.743 105.561 763.894 110.203L1195.54 289.881C1208.35 295.21 1215.62 308.469 1213.34 322.309L1148.15 718.192C1145.87 732.032 1134.6 743.065 1120.57 745.176L647.611 816.35C635.393 818.189 623.509 812.865 617.189 802.722L395.159 446.335Z" stroke="url(#paint16_linear_137_4)" stroke-opacity="0.57" stroke-width="5.06855"/>
<path opacity="0.181818" d="M391.599 441.476C383.976 428.708 387.086 411.951 398.959 401.817L732.699 116.985C742.226 108.854 755.439 106.728 766.512 111.543L1193.5 297.221C1206.19 302.741 1213.2 316.091 1210.64 329.878L1137.51 723.962C1134.95 737.748 1123.45 748.597 1109.38 750.499L636.061 814.479C623.786 816.138 611.99 810.632 605.873 800.386L391.599 441.476Z" stroke="url(#paint17_linear_137_4)" stroke-opacity="0.57" stroke-width="5.06855"/>
<path opacity="0.191919" d="M388.164 436.648C380.816 423.79 384.258 407.127 396.316 397.189L735.142 117.937C744.843 109.942 758.126 108.013 769.12 113.002L1191.32 304.592C1203.9 310.302 1210.64 323.738 1207.8 337.465L1126.78 729.643C1123.94 743.37 1112.23 754.03 1098.11 755.722L624.597 812.519C612.267 813.998 600.559 808.307 594.647 797.962L388.164 436.648Z" stroke="url(#paint18_linear_137_4)" stroke-opacity="0.57" stroke-width="5.06855"/>
<path opacity="0.20202" d="M384.852 431.851C377.781 418.91 381.553 402.349 393.79 392.61L737.577 119.002C747.451 111.144 760.802 109.413 771.716 114.576L1189.01 311.992C1201.48 317.89 1207.95 331.407 1204.84 345.068L1115.97 735.232C1112.86 748.893 1100.93 759.359 1086.79 760.841L613.222 810.467C600.837 811.765 589.218 805.892 583.512 795.449L384.852 431.851Z" stroke="url(#paint19_linear_137_4)" stroke-opacity="0.57" stroke-width="5.06855"/>
<path opacity="0.212121" d="M381.664 427.092C374.873 414.073 378.969 397.625 391.378 388.089L740.003 120.186C750.048 112.467 763.465 110.936 774.296 116.273L1186.58 319.424C1198.93 325.508 1205.12 339.101 1201.74 352.69L1105.1 740.734C1101.71 754.322 1089.57 764.59 1075.39 765.862L601.936 808.332C589.498 809.448 577.97 803.392 572.473 792.853L381.664 427.092Z" stroke="url(#paint20_linear_137_4)" stroke-opacity="0.57" stroke-width="5.06855"/>
<path opacity="0.222222" d="M378.598 422.367C372.088 409.277 376.505 392.95 389.08 383.621L742.416 121.48C752.63 113.902 766.113 112.573 776.86 118.084L1184.02 326.878C1196.25 333.148 1202.17 346.811 1198.51 360.322L1094.14 746.14C1090.49 759.651 1078.15 769.716 1063.94 770.777L590.743 806.11C578.253 807.042 566.817 800.803 561.529 790.171L378.598 422.367Z" stroke="url(#paint21_linear_137_4)" stroke-opacity="0.57" stroke-width="5.06855"/>
<path opacity="0.232323" d="M375.654 417.681C369.427 404.528 374.159 388.329 386.892 379.21L744.814 122.89C755.196 115.455 768.743 114.329 779.404 120.015L1181.33 334.361C1193.43 340.814 1199.07 354.541 1195.15 367.968L1083.12 751.455C1079.2 764.883 1066.66 774.741 1052.43 775.59L579.642 803.806C567.101 804.554 555.759 798.133 550.682 787.409L375.654 417.681Z" stroke="url(#paint22_linear_137_4)" stroke-opacity="0.57" stroke-width="5.06855"/>
<path opacity="0.242424" d="M372.829 413.036C366.888 399.825 371.93 383.764 384.816 374.859L747.195 124.412C757.742 117.123 771.351 116.203 781.925 122.063L1178.51 341.864C1190.48 348.499 1195.85 362.286 1191.66 375.624L1072.03 756.677C1067.84 770.015 1055.11 779.662 1040.86 780.3L568.635 801.421C556.045 801.984 544.798 795.379 539.934 784.565L372.829 413.036Z" stroke="url(#paint23_linear_137_4)" stroke-opacity="0.57" stroke-width="5.06855"/>
<path opacity="0.252525" d="M370.126 408.431C364.47 395.169 369.818 379.254 382.848 370.565L749.556 126.047C760.267 118.905 773.938 118.191 784.421 124.226L1175.56 349.387C1187.39 356.202 1192.49 370.043 1188.04 383.287L1060.87 761.802C1056.42 775.046 1043.5 784.478 1029.23 784.903L557.725 798.956C545.087 799.333 533.937 792.544 529.288 781.643L370.126 408.431Z" stroke="url(#paint24_linear_137_4)" stroke-opacity="0.57" stroke-width="5.06855"/>
<path opacity="0.262626" d="M367.541 403.869C362.173 390.562 367.819 374.8 380.989 366.33L751.894 127.791C762.767 120.798 776.498 120.293 786.89 126.503L1172.47 356.927C1184.18 363.92 1189 377.809 1184.29 390.954L1049.64 766.829C1044.93 779.974 1031.83 789.185 1017.55 789.398L546.911 796.41C534.227 796.599 523.175 789.628 518.742 778.641L367.541 403.869Z" stroke="url(#paint25_linear_137_4)" stroke-opacity="0.57" stroke-width="5.06855"/>
<path opacity="0.272727" d="M365.075 399.354C359.994 386.01 365.934 370.408 379.235 362.16L754.209 129.648C765.242 122.807 779.03 122.512 789.327 128.898L1169.26 364.485C1180.83 371.654 1185.37 385.586 1180.41 398.626L1038.35 771.76C1033.39 784.8 1020.12 793.789 1005.82 793.79L536.196 793.79C523.467 793.79 512.516 786.635 508.302 775.565L365.075 399.354Z" stroke="url(#paint26_linear_137_4)" stroke-opacity="0.57" stroke-width="5.06855"/>
<path opacity="0.282828" d="M362.725 394.887C357.934 381.51 364.161 366.075 377.586 358.052L756.497 131.616C767.688 124.928 781.532 124.846 791.733 131.407L1165.92 372.057C1177.34 379.402 1181.62 393.372 1176.4 406.302L1027 776.594C1021.79 789.524 1008.34 798.288 994.045 798.075L525.581 791.096C512.81 790.906 501.96 783.566 497.966 772.416L362.725 394.887Z" stroke="url(#paint27_linear_137_4)" stroke-opacity="0.57" stroke-width="5.06855"/>
<path opacity="0.292929" d="M360.492 390.468C355.989 377.066 362.498 361.805 376.041 354.009L758.757 133.693C770.104 127.161 784.002 127.293 794.105 134.03L1162.45 379.641C1173.73 387.158 1177.73 401.162 1172.26 413.977L1015.6 781.329C1010.13 794.144 996.521 802.677 982.223 802.251L515.069 788.328C502.256 787.947 491.51 780.424 487.737 769.194L360.492 390.468Z" stroke="url(#paint28_linear_137_4)" stroke-opacity="0.57" stroke-width="5.06855"/>
<path opacity="0.30303" d="M358.375 386.1C354.161 372.679 360.943 357.599 374.598 350.031L760.985 135.878C772.486 129.504 786.436 129.853 796.438 136.766L1158.85 387.235C1169.97 394.923 1173.7 408.954 1167.99 421.65L1004.13 785.963C998.421 798.659 984.651 806.958 970.357 806.319L504.657 785.489C491.805 784.914 481.164 777.208 477.615 765.902L358.375 386.1Z" stroke="url(#paint29_linear_137_4)" stroke-opacity="0.57" stroke-width="5.06855"/>
<path opacity="0.313131" d="M356.37 381.788C352.445 368.353 359.496 353.459 373.254 346.122L763.18 138.175C774.833 131.96 788.833 132.528 798.731 139.617L1155.12 394.839C1166.09 402.696 1169.54 416.751 1163.59 429.323L992.613 790.499C986.661 803.07 972.737 811.134 958.451 810.281L494.351 782.584C481.461 781.814 470.928 773.923 467.603 762.544L356.37 381.788Z" stroke="url(#paint30_linear_137_4)" stroke-opacity="0.57" stroke-width="5.06855"/>
<path opacity="0.323232" d="M354.479 377.526C350.843 364.084 358.155 349.383 372.01 342.278L765.34 140.575C777.143 134.522 791.19 135.311 800.982 142.576L1151.26 402.447C1162.08 410.47 1165.26 424.544 1159.07 436.987L981.041 794.931C974.852 807.373 960.781 815.196 946.506 814.131L484.148 779.608C471.223 778.642 460.8 770.566 457.702 759.115L354.479 377.526Z" stroke="url(#paint31_linear_137_4)" stroke-opacity="0.57" stroke-width="5.06855"/>
<path opacity="0.333333" d="M352.7 373.322C349.352 359.879 356.918 345.376 370.863 338.505L767.462 143.083C779.413 137.194 793.505 138.206 803.188 145.647L1147.27 410.06C1157.93 418.248 1160.83 432.335 1154.41 444.644L969.418 799.26C962.996 811.57 948.783 819.151 934.524 817.872L474.051 776.567C461.092 775.405 450.782 767.144 447.913 755.624L352.7 373.322Z" stroke="url(#paint32_linear_137_4)" stroke-opacity="0.57" stroke-width="5.06855"/>
<path opacity="0.343434" d="M351.03 369.176C347.969 355.738 355.783 341.437 369.812 334.801L769.544 145.697C781.64 139.975 795.775 141.211 805.347 148.829L1143.15 417.674C1153.64 426.025 1156.28 440.122 1149.63 452.294L957.748 803.488C951.098 815.66 936.748 822.996 922.509 821.504L464.061 773.463C451.071 772.102 440.875 763.656 438.236 752.07L351.03 369.176Z" stroke="url(#paint33_linear_137_4)" stroke-opacity="0.57" stroke-width="5.06855"/>
<path opacity="0.353535" d="M349.471 365.091C346.697 351.664 354.751 337.571 368.856 331.17L771.585 148.416C783.823 142.862 797.998 144.326 807.455 152.12L1138.9 425.291C1149.23 433.801 1151.6 447.903 1144.72 459.935L946.033 807.612C939.157 819.643 924.678 826.732 910.463 825.026L454.179 770.298C441.16 768.736 431.081 760.104 428.675 748.454L349.471 365.091Z" stroke="url(#paint34_linear_137_4)" stroke-opacity="0.57" stroke-width="5.06855"/>
<path opacity="0.363636" d="M348.019 361.065C345.53 347.654 353.817 333.774 367.991 327.61L773.582 151.237C785.96 145.854 800.172 147.547 809.512 155.517L1134.53 432.904C1144.68 441.573 1146.78 455.674 1139.69 467.56L934.273 811.63C927.176 823.516 912.574 830.355 898.387 828.437L444.406 767.071C431.36 765.307 421.402 756.49 419.229 744.779L348.019 361.065Z" stroke="url(#paint35_linear_137_4)" stroke-opacity="0.57" stroke-width="5.06855"/>
<path opacity="0.373737" d="M346.674 357.106C344.469 343.717 352.981 330.054 367.219 324.127L775.533 154.163C788.05 148.953 802.295 150.879 811.514 159.026L1130.02 440.515C1140.01 449.34 1141.84 463.438 1134.53 475.176L922.473 815.545C915.16 827.283 900.441 833.871 886.285 831.74L434.743 763.788C421.673 761.821 411.837 752.819 409.898 741.05L346.674 357.106Z" stroke="url(#paint36_linear_137_4)" stroke-opacity="0.57" stroke-width="5.06855"/>
<path opacity="0.383838" d="M345.433 353.209C343.512 339.848 352.243 326.405 366.537 320.716L777.436 157.189C790.088 152.154 804.365 154.314 813.461 162.639L1125.39 448.12C1135.2 457.098 1136.76 471.187 1129.24 482.773L910.633 819.354C903.109 830.939 888.279 837.272 874.16 834.93L425.19 760.449C412.099 758.277 402.387 749.087 400.686 737.262L345.433 353.209Z" stroke="url(#paint37_linear_137_4)" stroke-opacity="0.57" stroke-width="5.06855"/>
<path opacity="0.393939" d="M344.297 349.378C342.655 336.05 351.598 322.831 365.943 317.38L779.29 160.314C792.074 155.457 806.379 157.853 815.347 166.354L1120.63 455.715C1130.26 464.844 1131.56 478.922 1123.83 490.351L898.757 823.054C891.025 834.484 876.09 840.561 862.011 838.007L415.748 757.052C402.638 754.674 393.055 745.299 391.592 733.421L344.297 349.378Z" stroke="url(#paint38_linear_137_4)" stroke-opacity="0.57" stroke-width="5.06855"/>
<path opacity="0.40404" d="M343.263 345.617C341.901 332.328 351.048 319.336 365.436 314.123L781.093 163.543C794.006 158.865 808.335 161.499 817.173 170.176L1115.74 463.305C1125.19 472.582 1126.22 486.643 1118.29 497.914L886.848 826.65C878.912 837.921 863.879 843.742 849.844 840.977L406.42 753.606C393.293 751.02 383.841 741.459 382.618 729.531L343.263 345.617Z" stroke="url(#paint39_linear_137_4)" stroke-opacity="0.57" stroke-width="5.06855"/>
<path opacity="0.414141" d="M342.328 341.926C341.243 328.681 350.587 315.918 365.013 310.944L782.84 166.869C795.88 162.373 810.23 165.248 818.934 174.102L1110.72 470.881C1119.99 480.305 1120.76 494.346 1112.63 505.455L874.905 830.14C866.772 841.249 851.646 846.811 837.659 843.834L397.202 750.109C384.063 747.313 374.744 737.567 373.763 725.593L342.328 341.926Z" stroke="url(#paint40_linear_137_4)" stroke-opacity="0.57" stroke-width="5.06855"/>
<path opacity="0.424242" d="M341.493 338.307C340.683 325.109 350.217 312.58 364.673 307.843L784.533 170.292C797.697 165.98 812.063 169.098 820.63 178.127L1105.58 478.445C1114.66 488.013 1115.17 502.029 1106.84 512.973L862.934 833.522C854.606 844.466 839.395 849.767 825.461 846.581L388.099 746.563C374.949 743.556 365.769 733.623 365.031 721.606L341.493 338.307Z" stroke="url(#paint41_linear_137_4)" stroke-opacity="0.57" stroke-width="5.06855"/>
<path opacity="0.434343" d="M340.757 334.76C340.219 321.616 349.936 309.32 364.417 304.822L786.168 173.812C799.453 169.685 813.832 173.048 822.259 182.253L1100.31 485.993C1109.2 495.702 1109.45 509.69 1100.94 520.467L850.936 836.794C842.419 847.571 827.127 852.611 813.25 849.215L379.109 742.97C365.953 739.75 356.913 729.631 356.42 717.573L340.757 334.76Z" stroke="url(#paint42_linear_137_4)" stroke-opacity="0.57" stroke-width="5.06855"/>
<path opacity="0.444444" d="M340.115 331.288C339.847 318.202 349.74 306.144 364.24 301.883L787.744 177.428C801.146 173.49 815.535 177.1 823.817 186.479L1094.92 493.526C1103.62 503.373 1103.61 517.329 1094.91 527.936L838.912 839.96C830.21 850.566 814.846 855.343 801.03 851.738L370.235 739.332C357.076 735.899 348.179 725.594 347.932 713.498L340.115 331.288Z" stroke="url(#paint43_linear_137_4)" stroke-opacity="0.57" stroke-width="5.06855"/>
<path opacity="0.454545" d="M339.567 327.893C339.567 314.869 349.629 303.05 364.142 299.025L789.26 181.139C802.776 177.391 817.169 181.249 825.302 190.803L1089.4 501.039C1097.9 511.022 1097.64 524.943 1088.76 535.377L826.866 843.018C817.984 853.451 802.553 857.965 788.802 854.152L361.474 735.653C348.315 732.003 339.568 721.513 339.567 709.384L339.567 327.893Z" stroke="url(#paint44_linear_137_4)" stroke-opacity="0.57" stroke-width="5.06855"/>
<path opacity="0.464646" d="M339.112 324.574C339.377 311.617 349.601 300.038 364.121 296.25L790.712 184.94C804.339 181.384 818.733 185.495 826.713 195.222L1083.76 508.53C1092.06 518.646 1091.55 532.528 1082.49 542.786L814.8 845.964C805.742 856.222 790.25 860.472 776.569 856.452L352.83 731.929C339.675 728.063 331.078 717.388 331.327 705.228L339.112 324.574Z" stroke="url(#paint45_linear_137_4)" stroke-opacity="0.57" stroke-width="5.06855"/>
<path opacity="0.474747" d="M338.747 321.335C339.274 308.45 349.653 297.113 364.174 293.559L792.099 188.835C805.835 185.474 820.225 189.837 828.049 199.737L1078 516.002C1086.1 526.248 1085.33 540.087 1076.1 550.168L802.717 848.804C793.488 858.885 777.941 862.87 764.333 858.643L344.302 728.169C331.154 724.084 322.712 713.224 323.211 701.036L338.747 321.335Z" stroke="url(#paint46_linear_137_4)" stroke-opacity="0.57" stroke-width="5.06855"/>
<path opacity="0.484848" d="M338.471 318.176C339.257 305.366 349.784 294.272 364.302 290.952L793.42 192.82C807.26 189.655 821.641 194.274 829.304 204.346L1072.11 523.448C1080.01 533.822 1078.99 547.615 1069.59 557.517L790.619 851.534C781.223 861.436 765.627 865.156 752.096 860.723L335.89 724.37C322.754 720.066 314.47 709.021 315.22 696.809L338.471 318.176Z" stroke="url(#paint47_linear_137_4)" stroke-opacity="0.57" stroke-width="5.06855"/>
<path opacity="0.494949" d="M338.281 315.099C339.324 302.369 349.993 291.517 364.502 288.43L794.674 196.893C808.615 193.927 822.981 198.803 830.48 209.045L1066.11 530.867C1073.79 541.365 1072.52 555.109 1062.96 564.83L778.507 854.153C768.95 863.874 753.312 867.33 739.863 862.692L327.595 720.535C314.474 716.01 306.353 704.782 307.355 692.55L338.281 315.099Z" stroke="url(#paint48_linear_137_4)" stroke-opacity="0.57" stroke-width="5.06855"/>
<path opacity="0.50505" d="M338.177 312.108C339.473 299.461 350.277 288.854 364.771 285.998L795.858 201.058C809.895 198.292 824.243 203.426 831.574 213.838L1059.98 538.262C1067.45 548.882 1065.93 562.573 1056.22 572.111L766.386 856.667C756.671 866.205 740.996 869.395 727.633 864.554L319.416 716.668C306.315 711.922 298.361 700.511 299.617 688.262L338.177 312.108Z" stroke="url(#paint49_linear_137_4)" stroke-opacity="0.57" stroke-width="5.06855"/>
<path opacity="0.515152" d="M338.155 309.199C339.702 296.639 350.635 286.276 365.109 283.65L796.971 205.307C811.102 202.743 825.426 208.138 832.583 218.718L1053.73 545.624C1060.99 556.363 1059.23 569.999 1049.36 579.353L754.257 859.068C744.39 868.421 728.684 871.346 715.411 866.303L311.355 712.769C298.277 707.8 290.495 696.206 292.005 683.944L338.155 309.199Z" stroke="url(#paint50_linear_137_4)" stroke-opacity="0.57" stroke-width="5.06855"/>
<path opacity="0.525253" d="M338.214 306.377C340.008 293.907 351.064 283.788 365.515 281.391L798.012 209.643C812.232 207.284 826.526 212.939 833.506 223.686L1047.36 552.957C1054.41 563.811 1052.4 577.389 1042.39 586.556L742.123 861.362C732.107 870.529 716.377 873.188 703.198 867.943L303.411 708.839C290.362 703.646 282.755 691.871 284.52 679.6L338.214 306.377Z" stroke="url(#paint51_linear_137_4)" stroke-opacity="0.57" stroke-width="5.06855"/>
<path opacity="0.535354" d="M338.353 303.641C340.391 291.265 351.563 281.391 365.984 279.221L798.978 214.06C813.283 211.908 827.542 217.826 834.341 228.739L1040.88 560.255C1047.71 571.222 1045.46 584.738 1035.3 593.718L729.985 863.545C719.825 872.524 704.077 874.919 690.996 869.474L295.585 704.881C282.569 699.463 275.14 687.508 277.161 675.231L338.353 303.641Z" stroke="url(#paint52_linear_137_4)" stroke-opacity="0.57" stroke-width="5.06855"/>
<path opacity="0.545455" d="M338.568 300.994C340.846 288.716 352.13 279.086 366.517 277.141L799.868 218.563C814.255 216.618 828.473 222.801 835.086 233.878L1034.28 567.522C1040.89 578.598 1038.39 592.048 1028.09 600.839L717.847 865.62C707.547 874.41 691.787 876.541 678.809 870.897L287.876 700.897C274.897 695.253 267.653 683.119 269.932 670.84L338.568 300.994Z" stroke="url(#paint53_linear_137_4)" stroke-opacity="0.57" stroke-width="5.06855"/>
<path opacity="0.555556" d="M338.858 298.434C341.374 286.257 352.762 276.871 367.11 275.15L800.681 223.145C815.145 221.41 829.317 227.858 835.74 239.097L1027.56 574.748C1033.95 585.931 1031.21 599.314 1020.78 607.915L705.711 867.584C695.276 876.184 679.509 878.051 666.637 872.21L280.285 696.887C267.349 691.017 260.292 678.705 262.829 666.428L338.858 298.434Z" stroke="url(#paint54_linear_137_4)" stroke-opacity="0.57" stroke-width="5.06855"/>
<path opacity="0.565657" d="M339.221 295.969C341.971 283.894 353.459 274.751 367.765 273.252L801.417 227.81C815.954 226.286 830.072 233 836.3 244.399L1020.72 581.94C1026.89 593.226 1023.92 606.539 1013.35 614.948L693.579 869.442C683.013 877.851 667.245 879.454 654.483 873.417L272.812 692.857C259.924 686.759 253.06 674.271 255.854 662.002L339.221 295.969Z" stroke="url(#paint55_linear_137_4)" stroke-opacity="0.57" stroke-width="5.06855"/>
<path opacity="0.575758" d="M339.654 293.593C342.634 281.624 354.217 272.724 368.475 271.445L802.072 232.55C816.677 231.24 830.736 238.221 836.765 249.778L1013.78 589.091C1019.72 600.476 1016.51 613.716 1005.81 621.933L681.454 871.189C670.761 879.406 654.997 880.746 642.351 874.515L265.456 688.803C252.62 682.478 245.954 669.815 249.007 657.556L339.654 293.593Z" stroke="url(#paint56_linear_137_4)" stroke-opacity="0.57" stroke-width="5.06855"/>
<path opacity="0.585859" d="M340.155 291.311C343.364 279.451 355.035 270.792 369.242 269.731L802.646 237.369C817.315 236.274 831.309 243.523 837.134 255.235L1006.72 596.201C1012.43 607.683 1008.98 620.847 998.168 628.871L669.338 872.83C658.523 880.853 642.769 881.932 630.241 875.508L258.217 684.732C245.439 678.179 238.976 665.343 242.288 653.097L340.155 291.311Z" stroke="url(#paint57_linear_137_4)" stroke-opacity="0.57" stroke-width="5.06855"/>
<path opacity="0.59596" d="M340.724 289.12C344.156 277.372 355.911 268.954 370.063 268.109L803.137 242.264C817.866 241.385 831.788 248.901 837.404 260.766L999.544 603.266C1005.02 614.842 1001.35 627.928 990.413 635.757L657.233 874.36C646.299 882.189 630.56 883.008 618.155 876.392L251.097 680.641C238.382 673.86 232.126 660.854 235.698 648.627L340.724 289.12Z" stroke="url(#paint58_linear_137_4)" stroke-opacity="0.57" stroke-width="5.06855"/>
<path opacity="0.606061" d="M341.356 287.025C345.008 275.391 356.843 267.212 370.936 266.582L803.545 247.233C818.329 246.572 832.172 254.356 837.576 266.371L992.262 610.289C997.509 621.954 993.6 634.959 982.553 642.594L645.142 875.784C634.094 883.419 618.377 883.978 606.099 877.173L244.094 676.535C231.448 669.525 225.404 656.351 229.235 644.147L341.356 287.025Z" stroke="url(#paint59_linear_137_4)" stroke-opacity="0.57" stroke-width="5.06855"/>
<path opacity="0.616162" d="M342.05 285.026C345.92 273.508 357.828 265.568 371.859 265.149L803.867 252.274C818.701 251.832 832.459 259.886 837.646 272.048L984.869 617.266C989.881 629.017 985.743 641.938 974.585 649.377L633.066 877.1C621.909 884.539 606.218 884.84 594.071 877.847L237.208 672.415C224.636 665.178 218.808 651.837 222.899 639.659L342.05 285.026Z" stroke="url(#paint60_linear_137_4)" stroke-opacity="0.57" stroke-width="5.06855"/>
<path opacity="0.626263" d="M342.803 283.125C346.887 271.726 358.865 264.022 372.83 263.814L804.103 257.39C818.983 257.168 832.648 265.49 837.613 277.796L977.369 624.198C982.143 636.032 977.777 648.865 966.514 656.109L621.01 878.312C609.746 885.555 594.088 885.599 582.075 878.42L230.44 668.285C217.948 660.819 212.341 647.315 216.693 635.169L342.803 283.125Z" stroke="url(#paint61_linear_137_4)" stroke-opacity="0.57" stroke-width="5.06855"/>
<path opacity="0.636364" d="M343.614 281.321C347.908 270.042 359.952 262.574 373.848 262.574L804.251 262.574C819.172 262.574 832.736 271.163 837.476 283.612L969.76 631.078C974.296 642.991 969.704 655.737 958.339 662.784L608.974 879.416C597.608 886.463 581.986 886.251 570.112 878.888L223.788 664.142C211.381 656.449 206.002 642.784 210.612 630.673L343.614 281.321Z" stroke="url(#paint62_linear_137_4)" stroke-opacity="0.57" stroke-width="5.06855"/>
<path opacity="0.646465" d="M344.479 279.614C348.981 268.457 361.086 261.223 374.91 261.429L804.311 267.826C819.267 268.049 832.726 276.905 837.235 289.492L962.048 637.908C966.342 649.897 961.527 662.551 950.063 669.402L596.962 880.414C585.498 887.264 569.918 886.799 558.187 879.254L217.253 659.99C204.938 652.07 199.789 638.246 204.659 626.176L344.479 279.614Z" stroke="url(#paint63_linear_137_4)" stroke-opacity="0.57" stroke-width="5.06855"/>
<path opacity="0.656566" d="M345.398 278.004C350.103 266.972 362.265 259.971 376.013 260.381L804.281 273.145C819.268 273.592 832.613 282.714 836.887 295.435L954.23 644.686C958.282 656.747 953.243 669.307 941.685 675.961L584.975 881.306C573.416 887.96 557.884 887.241 546.3 879.517L210.835 655.831C198.616 647.684 193.704 633.706 198.833 621.679L345.398 278.004Z" stroke="url(#paint64_linear_137_4)" stroke-opacity="0.57" stroke-width="5.06855"/>
<path opacity="0.666667" d="M346.367 276.495C351.272 265.588 363.488 258.818 377.158 259.429L804.161 278.529C819.173 279.2 832.398 288.589 836.433 301.44L946.308 651.41C950.116 663.539 944.857 676.003 933.208 682.46L573.016 882.093C561.367 888.549 545.886 887.58 534.452 879.678L204.532 651.665C192.417 643.292 187.747 629.163 193.134 617.185L346.367 276.495Z" stroke="url(#paint65_linear_137_4)" stroke-opacity="0.57" stroke-width="5.06855"/>
<path opacity="0.676768" d="M347.384 275.086C352.487 264.307 364.752 257.766 378.341 258.576L803.948 283.977C818.981 284.874 832.077 294.527 835.868 307.506L938.285 658.079C941.847 670.273 936.369 682.638 924.632 688.897L561.086 882.776C549.35 889.035 533.926 887.816 522.647 879.739L198.346 647.495C186.34 638.898 181.915 624.62 187.56 612.696L347.384 275.086Z" stroke="url(#paint66_linear_137_4)" stroke-opacity="0.57" stroke-width="5.06855"/>
<path opacity="0.686869" d="M348.447 273.778C353.744 263.128 366.056 256.814 379.561 257.823L803.643 289.488C818.691 290.612 831.651 300.528 835.195 313.629L930.161 664.694C933.476 676.948 927.781 689.213 915.961 695.274L549.191 883.357C537.37 889.419 522.007 887.952 510.886 879.701L192.274 643.324C180.384 634.503 176.21 620.081 182.112 608.214L348.447 273.778Z" stroke="url(#paint67_linear_137_4)" stroke-opacity="0.57" stroke-width="5.06855"/>
<path opacity="0.69697" d="M349.553 272.57C355.041 262.05 367.395 255.962 380.814 257.166L803.242 295.059C818.3 296.41 831.118 306.587 834.41 319.806L921.938 671.249C925.004 683.56 919.093 695.722 907.194 701.585L537.328 883.834C525.428 889.698 510.131 887.986 499.172 879.564L186.317 639.149C174.549 630.106 170.632 615.544 176.79 603.739L349.553 272.57Z" stroke="url(#paint68_linear_137_4)" stroke-opacity="0.57" stroke-width="5.06855"/>
<path opacity="0.707071" d="M350.7 271.466C356.376 261.078 368.77 255.215 382.1 256.612L802.749 300.692C817.811 302.27 830.477 312.706 833.514 326.039L913.618 677.748C916.434 690.112 910.309 702.169 898.332 707.835L525.502 884.212C513.525 889.878 498.3 887.923 487.506 879.333L180.475 634.978C168.836 625.714 165.178 611.017 171.591 599.278L350.7 271.466Z" stroke="url(#paint69_linear_137_4)" stroke-opacity="0.57" stroke-width="5.06855"/>
<path opacity="0.717172" d="M351.886 270.462C357.747 260.206 370.177 254.565 383.417 256.153L802.159 306.379C817.22 308.186 829.727 318.878 832.505 332.32L905.202 684.184C907.766 696.597 901.427 708.545 889.378 714.013L513.715 884.485C501.666 889.953 486.516 887.757 475.892 879.001L174.747 630.805C163.242 621.323 159.85 606.495 166.518 594.828L351.886 270.462Z" stroke="url(#paint70_linear_137_4)" stroke-opacity="0.57" stroke-width="5.06855"/>
<path opacity="0.727273" d="M353.108 269.561C359.15 259.44 371.615 254.02 384.761 255.797L801.472 312.126C816.527 314.161 828.868 325.106 831.383 338.653L896.689 690.56C899.001 703.018 892.453 714.857 880.333 720.127L501.971 884.661C489.851 889.931 474.78 887.494 464.329 878.575L169.132 626.638C157.768 616.939 154.647 601.985 161.567 590.393L353.108 269.561Z" stroke="url(#paint71_linear_137_4)" stroke-opacity="0.57" stroke-width="5.06855"/>
<path opacity="0.737374" d="M354.364 268.765C360.586 258.778 373.082 253.577 386.133 255.541L800.689 317.927C815.732 320.191 827.9 331.387 830.147 345.033L888.086 696.874C890.144 709.373 883.385 721.099 871.199 726.172L490.268 884.737C478.082 889.81 463.095 887.136 452.82 878.056L163.631 622.476C152.415 612.563 149.568 597.487 156.74 585.976L354.364 268.765Z" stroke="url(#paint72_linear_137_4)" stroke-opacity="0.57" stroke-width="5.06855"/>
<path opacity="0.747475" d="M355.652 268.071C362.049 258.221 374.573 253.237 387.527 255.386L799.807 323.781C814.833 326.274 826.819 337.718 828.796 351.459L879.389 703.123C881.193 715.661 874.227 727.271 861.977 732.147L478.611 884.716C466.361 889.591 451.462 886.682 441.368 877.444L158.242 618.321C147.179 608.197 144.612 593.003 152.033 581.578L355.652 268.071Z" stroke="url(#paint73_linear_137_4)" stroke-opacity="0.57" stroke-width="5.06855"/>
<path opacity="0.757576" d="M356.968 267.48C363.539 257.767 376.089 252.998 388.944 255.33L798.826 329.685C813.828 332.406 825.626 344.095 827.329 357.925L870.602 709.305C872.15 721.875 864.978 733.37 852.667 738.047L467.001 884.594C454.691 889.272 439.883 886.129 429.973 876.736L152.966 614.171C142.064 603.838 139.779 588.534 147.448 577.198L356.968 267.48Z" stroke="url(#paint74_linear_137_4)" stroke-opacity="0.57" stroke-width="5.06855"/>
<path opacity="0.767677" d="M358.311 266.993C365.053 257.418 377.627 252.862 390.381 255.375L797.745 335.641C812.719 338.592 824.319 350.52 825.745 364.433L861.726 715.423C863.018 728.023 855.642 739.398 843.274 743.878L455.442 884.379C443.074 888.859 428.362 885.486 418.639 875.94L147.8 610.033C137.065 599.493 135.07 584.084 142.984 572.842L358.311 266.993Z" stroke="url(#paint75_linear_137_4)" stroke-opacity="0.57" stroke-width="5.06855"/>
<path opacity="0.777778" d="M359.678 266.612C366.588 257.174 379.184 252.831 391.836 255.523L796.565 341.646C811.503 344.825 822.901 356.99 824.047 370.98L852.764 721.472C853.798 734.097 846.219 745.351 833.797 749.634L443.933 884.067C431.511 888.35 416.899 884.748 407.367 875.053L142.746 605.905C132.184 595.162 130.481 579.654 138.64 568.51L359.678 266.612Z" stroke="url(#paint76_linear_137_4)" stroke-opacity="0.57" stroke-width="5.06855"/>
<path opacity="0.787879" d="M361.067 266.334C368.142 257.036 380.758 252.903 393.306 255.772L795.282 347.697C810.181 351.104 821.367 363.502 822.231 377.563L843.716 727.454C844.493 740.1 836.712 751.23 824.238 755.317L432.478 883.662C420.005 887.748 405.496 883.921 396.158 874.079L137.802 601.79C127.419 590.847 126.012 575.245 134.413 564.205L361.067 266.334Z" stroke="url(#paint77_linear_137_4)" stroke-opacity="0.57" stroke-width="5.06855"/>
<path opacity="0.79798" d="M362.476 266.159C369.714 257 382.348 253.076 394.791 256.121L793.898 353.793C808.751 357.428 819.719 370.052 820.297 384.179L834.584 733.364C835.102 746.027 827.122 757.032 814.6 760.921L421.078 883.162C408.557 887.052 394.155 882.999 385.015 873.015L132.968 597.686C122.771 586.547 121.664 570.859 130.304 559.927L362.476 266.159Z" stroke="url(#paint78_linear_137_4)" stroke-opacity="0.57" stroke-width="5.06855"/>
<path opacity="0.808081" d="M363.902 266.09C371.3 257.073 383.951 253.355 396.286 256.574L792.412 359.934C807.212 363.796 817.955 376.643 818.245 390.829L825.37 739.204C825.629 751.88 817.45 762.757 804.882 766.45L409.736 882.571C397.168 886.264 382.877 881.991 373.937 871.866L128.243 593.599C118.238 582.268 117.435 566.499 126.312 555.679L363.902 266.09Z" stroke="url(#paint79_linear_137_4)" stroke-opacity="0.57" stroke-width="5.06855"/>
<path opacity="0.818182" d="M365.343 266.124C372.9 257.247 385.565 253.735 397.791 257.126L790.823 366.116C805.565 370.204 816.075 383.268 816.075 397.507L816.075 744.972C816.075 757.656 807.7 768.402 795.088 771.9L398.453 881.889C385.842 885.385 371.665 880.893 362.929 870.631L123.627 589.526C113.82 578.007 113.325 562.166 122.436 551.463L365.343 266.124Z" stroke="url(#paint80_linear_137_4)" stroke-opacity="0.57" stroke-width="5.06855"/>
<path opacity="0.828283" d="M366.796 266.263C374.508 257.528 387.187 254.22 399.304 257.781L789.13 372.339C803.809 376.653 814.079 389.929 813.787 404.215L806.702 750.667C806.442 763.356 797.871 773.97 785.22 777.271L387.232 881.118C374.58 884.419 360.521 879.709 351.992 869.313L119.119 585.473C109.517 573.769 109.331 557.861 118.674 547.279L366.796 266.263Z" stroke="url(#paint81_linear_137_4)" stroke-opacity="0.57" stroke-width="5.06855"/>
<path opacity="0.838384" d="M368.258 266.507C376.125 257.914 388.815 254.808 400.822 258.538L787.334 378.601C801.943 383.139 811.966 396.621 811.38 410.947L797.25 756.286C796.731 768.976 787.968 779.455 775.279 782.561L376.073 880.256C363.384 883.361 349.446 878.438 341.126 867.911L114.718 581.437C105.326 569.554 105.455 553.587 115.027 543.131L368.258 266.507Z" stroke="url(#paint82_linear_137_4)" stroke-opacity="0.57" stroke-width="5.06855"/>
<path opacity="0.848485" d="M369.729 266.855C377.747 258.404 390.449 255.5 402.343 259.396L785.432 384.9C799.966 389.662 809.737 403.345 808.855 417.703L787.724 761.831C786.945 774.517 777.99 784.859 765.265 787.769L364.978 879.308C352.254 882.218 338.44 877.082 330.334 866.429L110.424 577.422C101.249 565.364 101.693 549.345 111.491 539.019L369.729 266.855Z" stroke="url(#paint83_linear_137_4)" stroke-opacity="0.57" stroke-width="5.06855"/>
<path opacity="0.858586" d="M371.205 267.306C379.373 258.998 392.083 256.294 403.865 260.356L783.426 391.236C797.88 396.22 807.39 410.097 806.211 424.481L778.123 767.3C777.085 779.978 767.94 790.181 755.183 792.896L353.951 878.274C341.194 880.989 327.507 875.644 319.616 864.866L106.236 573.429C97.2825 561.201 98.0468 545.137 108.067 534.946L371.205 267.306Z" stroke="url(#paint84_linear_137_4)" stroke-opacity="0.57" stroke-width="5.06855"/>
<path opacity="0.868687" d="M372.684 267.861C380.999 259.698 393.718 257.191 405.385 261.418L781.314 397.607C795.681 402.811 804.926 416.875 803.45 431.278L768.45 772.693C767.152 785.359 757.819 795.421 745.032 797.94L342.992 877.157C330.205 879.676 316.647 874.124 308.975 863.226L102.154 569.459C93.4284 557.065 94.5138 540.966 104.753 530.913L372.684 267.861Z" stroke="url(#paint85_linear_137_4)" stroke-opacity="0.57" stroke-width="5.06855"/>
<path opacity="0.878788" d="M374.163 268.52C382.624 260.5 395.351 258.191 406.903 262.581L779.097 404.008C793.371 409.432 802.343 423.676 800.568 438.091L758.708 778.007C757.15 790.656 747.629 800.574 734.814 802.899L332.103 875.954C319.288 878.278 305.864 872.523 298.413 861.508L98.1755 565.511C89.6837 552.958 91.0933 536.831 101.548 526.921L374.163 268.52Z" stroke="url(#paint86_linear_137_4)" stroke-opacity="0.57" stroke-width="5.06855"/>
<path opacity="0.888889" d="M375.64 269.282C384.245 261.406 396.979 259.294 408.414 263.845L776.773 410.442C790.948 416.084 799.644 430.501 797.569 444.922L748.896 783.242C747.079 795.87 737.374 805.643 724.533 807.773L321.285 874.67C308.444 876.8 295.156 870.843 287.929 859.715L94.3018 561.59C86.0485 548.883 87.7829 532.735 98.4498 522.973L375.64 269.282Z" stroke="url(#paint87_linear_137_4)" stroke-opacity="0.57" stroke-width="5.06855"/>
<path opacity="0.89899" d="M377.114 270.147C385.861 262.416 398.6 260.499 409.918 265.21L774.342 416.905C788.413 422.763 796.826 437.346 794.451 451.764L739.018 788.398C736.943 801.001 727.053 810.625 714.19 812.561L310.54 873.305C297.677 875.24 284.528 869.084 277.527 857.847L90.5307 557.695C82.5216 544.839 84.5828 528.68 95.4578 519.069L377.114 270.147Z" stroke="url(#paint88_linear_137_4)" stroke-opacity="0.57" stroke-width="5.06855"/>
<path opacity="0.909091" d="M378.581 271.117C387.469 263.531 400.213 261.808 411.413 266.679L771.805 423.398C785.766 429.469 793.891 444.21 791.217 458.619L729.075 793.474C726.741 806.048 716.671 815.522 703.786 817.263L299.872 871.862C286.987 873.604 273.979 867.25 267.207 855.906L86.8631 553.83C79.1031 540.831 81.4926 524.668 92.5722 515.212L378.581 271.117Z" stroke="url(#paint89_linear_137_4)" stroke-opacity="0.57" stroke-width="5.06855"/>
<path opacity="0.919192" d="M380.039 272.185C389.066 264.745 401.815 263.216 412.895 268.244L769.16 429.915C783.006 436.198 790.837 451.09 787.864 465.482L719.069 798.468C716.478 811.009 706.227 820.329 693.324 821.876L289.278 870.34C276.376 871.888 263.512 865.34 256.971 853.895L83.297 549.991C75.791 536.856 78.5097 520.699 89.7895 511.402L380.039 272.185Z" stroke="url(#paint90_linear_137_4)" stroke-opacity="0.57" stroke-width="5.06855"/>
<path opacity="0.929293" d="M381.487 273.358C390.651 266.064 403.403 264.728 414.363 269.913L766.408 436.457C780.132 442.95 787.666 457.986 784.394 472.354L709.001 803.379C706.153 815.882 695.724 825.048 682.805 826.402L278.763 868.742C265.843 870.095 253.127 863.356 246.819 851.812L79.8328 546.185C72.5849 532.92 75.6327 516.775 87.109 507.642L381.487 273.358Z" stroke="url(#paint91_linear_137_4)" stroke-opacity="0.57" stroke-width="5.06855"/>
<path opacity="0.939394" d="M382.921 274.632C392.222 267.485 404.977 266.341 415.816 271.681L763.548 443.024C777.145 449.724 784.377 464.895 780.807 479.231L698.872 808.21C695.769 820.671 685.164 829.679 672.231 830.839L268.326 867.07C255.393 868.23 242.826 861.301 236.754 849.663L76.4686 542.411C69.4838 529.022 72.8608 512.899 84.5289 503.933L382.921 274.632Z" stroke="url(#paint92_linear_137_4)" stroke-opacity="0.57" stroke-width="5.06855"/>
<path opacity="0.949495" d="M384.341 276.006C393.776 269.006 406.534 268.054 417.25 273.549L760.58 449.612C774.045 456.517 780.969 471.815 777.102 486.112L688.688 812.957C685.329 825.372 674.55 834.219 661.605 835.186L257.972 865.324C245.027 866.291 232.611 859.175 226.777 847.447L73.204 538.67C66.4863 525.163 70.194 509.072 82.0497 500.277L384.341 276.006Z" stroke="url(#paint93_linear_137_4)" stroke-opacity="0.57" stroke-width="5.06855"/>
<path opacity="0.959596" d="M385.742 277.48C395.311 270.628 408.071 269.866 418.664 275.515L757.503 456.219C770.831 463.326 777.445 478.741 773.282 492.992L678.447 817.618C674.834 829.982 663.882 838.668 650.928 839.441L247.698 863.506C234.744 864.279 222.481 856.979 216.888 845.163L70.0393 534.961C63.5929 521.344 67.6287 505.293 79.6672 496.671L385.742 277.48Z" stroke="url(#paint94_linear_137_4)" stroke-opacity="0.57" stroke-width="5.06855"/>
<path opacity="0.969697" d="M387.124 279.055C396.825 272.35 409.586 271.779 420.055 277.582L754.318 462.844C767.502 470.151 773.804 485.678 769.346 499.874L668.152 822.195C664.287 834.505 653.164 843.026 640.202 843.606L237.509 861.617C224.547 862.197 212.44 854.715 207.089 842.817L66.9716 531.29C60.8001 517.569 65.1653 501.565 77.3825 493.122L387.124 279.055Z" stroke="url(#paint95_linear_137_4)" stroke-opacity="0.57" stroke-width="5.06855"/>
<path opacity="0.979798" d="M388.484 280.727C398.316 274.171 411.078 273.791 421.422 279.745L751.026 469.486C764.061 476.99 770.045 492.617 765.296 506.752L657.805 826.684C653.688 838.937 642.396 847.291 629.429 847.677L227.403 859.659C214.436 860.046 202.489 852.384 197.381 840.407L64.0023 527.653C58.1093 513.835 62.8018 497.89 75.1926 489.628L388.484 280.727Z" stroke="url(#paint96_linear_137_4)" stroke-opacity="0.57" stroke-width="5.06855"/>
<path opacity="0.989899" d="M389.82 282.498C399.782 276.091 412.545 275.901 422.762 282.007L747.623 476.143C760.505 483.841 766.17 499.561 761.131 513.629L647.408 831.09C643.041 843.28 631.582 851.463 618.612 851.657L217.384 857.634C204.414 857.827 192.627 849.989 187.765 837.938L61.1295 524.057C55.5181 510.148 60.5362 494.269 73.0958 486.191L389.82 282.498Z" stroke="url(#paint97_linear_137_4)" stroke-opacity="0.57" stroke-width="5.06855"/>
<path d="M391.131 284.367C401.221 278.111 413.984 278.111 424.073 284.367L744.112 482.814C756.836 490.704 762.178 506.508 756.852 520.499L636.962 835.408C632.347 847.531 620.723 855.544 607.751 855.544H207.452C194.481 855.544 182.858 847.531 178.242 835.408L58.3526 520.499C53.026 506.508 58.3684 490.704 71.0919 482.814L391.131 284.367Z" stroke="url(#paint98_linear_137_4)" stroke-opacity="0.57" stroke-width="5.06855"/>
<defs>
<linearGradient id="paint0_linear_137_4" x1="942.861" y1="682.467" x2="886.745" y2="214.624" gradientUnits="userSpaceOnUse">
<stop stop-color="#FF1CF7" stop-opacity="0.1"/>
<stop offset="0.95" stop-color="#00F0FF" stop-opacity="0.1"/>
</linearGradient>
<linearGradient id="paint1_linear_137_4" x1="933.059" y1="684.031" x2="884.07" y2="216.543" gradientUnits="userSpaceOnUse">
<stop stop-color="#FF1CF7" stop-opacity="0.1"/>
<stop offset="0.95" stop-color="#00F0FF" stop-opacity="0.1"/>
</linearGradient>
<linearGradient id="paint2_linear_137_4" x1="923.263" y1="685.524" x2="881.367" y2="218.463" gradientUnits="userSpaceOnUse">
<stop stop-color="#FF1CF7" stop-opacity="0.1"/>
<stop offset="0.95" stop-color="#00F0FF" stop-opacity="0.1"/>
</linearGradient>
<linearGradient id="paint3_linear_137_4" x1="913.476" y1="686.946" x2="878.639" y2="220.379" gradientUnits="userSpaceOnUse">
<stop stop-color="#FF1CF7" stop-opacity="0.1"/>
<stop offset="0.95" stop-color="#00F0FF" stop-opacity="0.1"/>
</linearGradient>
<linearGradient id="paint4_linear_137_4" x1="903.699" y1="688.297" x2="875.888" y2="222.292" gradientUnits="userSpaceOnUse">
<stop stop-color="#FF1CF7" stop-opacity="0.1"/>
<stop offset="0.95" stop-color="#00F0FF" stop-opacity="0.1"/>
</linearGradient>
<linearGradient id="paint5_linear_137_4" x1="893.933" y1="689.577" x2="873.117" y2="224.201" gradientUnits="userSpaceOnUse">
<stop stop-color="#FF1CF7" stop-opacity="0.1"/>
<stop offset="0.95" stop-color="#00F0FF" stop-opacity="0.1"/>
</linearGradient>
<linearGradient id="paint6_linear_137_4" x1="884.18" y1="690.785" x2="870.33" y2="226.104" gradientUnits="userSpaceOnUse">
<stop stop-color="#FF1CF7" stop-opacity="0.1"/>
<stop offset="0.95" stop-color="#00F0FF" stop-opacity="0.1"/>
</linearGradient>
<linearGradient id="paint7_linear_137_4" x1="874.44" y1="691.926" x2="867.529" y2="228.005" gradientUnits="userSpaceOnUse">
<stop stop-color="#FF1CF7" stop-opacity="0.1"/>
<stop offset="0.95" stop-color="#00F0FF" stop-opacity="0.1"/>
</linearGradient>
<linearGradient id="paint8_linear_137_4" x1="864.715" y1="692.995" x2="864.715" y2="229.901" gradientUnits="userSpaceOnUse">
<stop stop-color="#FF1CF7" stop-opacity="0.1"/>
<stop offset="0.95" stop-color="#00F0FF" stop-opacity="0.1"/>
</linearGradient>
<linearGradient id="paint9_linear_137_4" x1="855.009" y1="693.996" x2="861.895" y2="231.791" gradientUnits="userSpaceOnUse">
<stop stop-color="#FF1CF7" stop-opacity="0.1"/>
<stop offset="0.95" stop-color="#00F0FF" stop-opacity="0.1"/>
</linearGradient>
<linearGradient id="paint10_linear_137_4" x1="845.32" y1="694.928" x2="859.067" y2="233.677" gradientUnits="userSpaceOnUse">
<stop stop-color="#FF1CF7" stop-opacity="0.1"/>
<stop offset="0.95" stop-color="#00F0FF" stop-opacity="0.1"/>
</linearGradient>
<linearGradient id="paint11_linear_137_4" x1="835.65" y1="695.792" x2="856.236" y2="235.558" gradientUnits="userSpaceOnUse">
<stop stop-color="#FF1CF7" stop-opacity="0.1"/>
<stop offset="0.95" stop-color="#00F0FF" stop-opacity="0.1"/>
</linearGradient>
<linearGradient id="paint12_linear_137_4" x1="826.003" y1="696.588" x2="853.404" y2="237.436" gradientUnits="userSpaceOnUse">
<stop stop-color="#FF1CF7" stop-opacity="0.1"/>
<stop offset="0.95" stop-color="#00F0FF" stop-opacity="0.1"/>
</linearGradient>
<linearGradient id="paint13_linear_137_4" x1="816.377" y1="697.316" x2="850.575" y2="239.31" gradientUnits="userSpaceOnUse">
<stop stop-color="#FF1CF7" stop-opacity="0.1"/>
<stop offset="0.95" stop-color="#00F0FF" stop-opacity="0.1"/>
</linearGradient>
<linearGradient id="paint14_linear_137_4" x1="806.776" y1="697.975" x2="847.751" y2="241.178" gradientUnits="userSpaceOnUse">
<stop stop-color="#FF1CF7" stop-opacity="0.1"/>
<stop offset="0.95" stop-color="#00F0FF" stop-opacity="0.1"/>
</linearGradient>
<linearGradient id="paint15_linear_137_4" x1="797.199" y1="698.57" x2="844.934" y2="243.047" gradientUnits="userSpaceOnUse">
<stop stop-color="#FF1CF7" stop-opacity="0.1"/>
<stop offset="0.95" stop-color="#00F0FF" stop-opacity="0.1"/>
</linearGradient>
<linearGradient id="paint16_linear_137_4" x1="787.649" y1="699.099" x2="842.126" y2="244.915" gradientUnits="userSpaceOnUse">
<stop stop-color="#FF1CF7" stop-opacity="0.1"/>
<stop offset="0.95" stop-color="#00F0FF" stop-opacity="0.1"/>
</linearGradient>
<linearGradient id="paint17_linear_137_4" x1="778.127" y1="699.561" x2="839.332" y2="246.782" gradientUnits="userSpaceOnUse">
<stop stop-color="#FF1CF7" stop-opacity="0.1"/>
<stop offset="0.95" stop-color="#00F0FF" stop-opacity="0.1"/>
</linearGradient>
<linearGradient id="paint18_linear_137_4" x1="768.635" y1="699.959" x2="836.551" y2="248.649" gradientUnits="userSpaceOnUse">
<stop stop-color="#FF1CF7" stop-opacity="0.1"/>
<stop offset="0.95" stop-color="#00F0FF" stop-opacity="0.1"/>
</linearGradient>
<linearGradient id="paint19_linear_137_4" x1="759.172" y1="700.29" x2="833.788" y2="250.516" gradientUnits="userSpaceOnUse">
<stop stop-color="#FF1CF7" stop-opacity="0.1"/>
<stop offset="0.95" stop-color="#00F0FF" stop-opacity="0.1"/>
</linearGradient>
<linearGradient id="paint20_linear_137_4" x1="749.742" y1="700.561" x2="831.044" y2="252.39" gradientUnits="userSpaceOnUse">
<stop stop-color="#FF1CF7" stop-opacity="0.1"/>
<stop offset="0.95" stop-color="#00F0FF" stop-opacity="0.1"/>
</linearGradient>
<linearGradient id="paint21_linear_137_4" x1="740.344" y1="700.766" x2="828.321" y2="254.266" gradientUnits="userSpaceOnUse">
<stop stop-color="#FF1CF7" stop-opacity="0.1"/>
<stop offset="0.95" stop-color="#00F0FF" stop-opacity="0.1"/>
</linearGradient>
<linearGradient id="paint22_linear_137_4" x1="730.981" y1="700.91" x2="825.622" y2="256.15" gradientUnits="userSpaceOnUse">
<stop stop-color="#FF1CF7" stop-opacity="0.1"/>
<stop offset="0.95" stop-color="#00F0FF" stop-opacity="0.1"/>
</linearGradient>
<linearGradient id="paint23_linear_137_4" x1="721.654" y1="700.992" x2="822.949" y2="258.043" gradientUnits="userSpaceOnUse">
<stop stop-color="#FF1CF7" stop-opacity="0.1"/>
<stop offset="0.95" stop-color="#00F0FF" stop-opacity="0.1"/>
</linearGradient>
<linearGradient id="paint24_linear_137_4" x1="712.363" y1="701.013" x2="820.303" y2="259.945" gradientUnits="userSpaceOnUse">
<stop stop-color="#FF1CF7" stop-opacity="0.1"/>
<stop offset="0.95" stop-color="#00F0FF" stop-opacity="0.1"/>
</linearGradient>
<linearGradient id="paint25_linear_137_4" x1="703.11" y1="700.971" x2="817.687" y2="261.858" gradientUnits="userSpaceOnUse">
<stop stop-color="#FF1CF7" stop-opacity="0.1"/>
<stop offset="0.95" stop-color="#00F0FF" stop-opacity="0.1"/>
</linearGradient>
<linearGradient id="paint26_linear_137_4" x1="693.896" y1="700.871" x2="815.102" y2="263.786" gradientUnits="userSpaceOnUse">
<stop stop-color="#FF1CF7" stop-opacity="0.1"/>
<stop offset="0.95" stop-color="#00F0FF" stop-opacity="0.1"/>
</linearGradient>
<linearGradient id="paint27_linear_137_4" x1="684.723" y1="700.712" x2="812.55" y2="265.731" gradientUnits="userSpaceOnUse">
<stop stop-color="#FF1CF7" stop-opacity="0.1"/>
<stop offset="0.95" stop-color="#00F0FF" stop-opacity="0.1"/>
</linearGradient>
<linearGradient id="paint28_linear_137_4" x1="675.591" y1="700.494" x2="810.033" y2="267.693" gradientUnits="userSpaceOnUse">
<stop stop-color="#FF1CF7" stop-opacity="0.1"/>
<stop offset="0.95" stop-color="#00F0FF" stop-opacity="0.1"/>
</linearGradient>
<linearGradient id="paint29_linear_137_4" x1="666.502" y1="700.218" x2="807.552" y2="269.676" gradientUnits="userSpaceOnUse">
<stop stop-color="#FF1CF7" stop-opacity="0.1"/>
<stop offset="0.95" stop-color="#00F0FF" stop-opacity="0.1"/>
</linearGradient>
<linearGradient id="paint30_linear_137_4" x1="657.457" y1="699.887" x2="805.109" y2="271.685" gradientUnits="userSpaceOnUse">
<stop stop-color="#FF1CF7" stop-opacity="0.1"/>
<stop offset="0.95" stop-color="#00F0FF" stop-opacity="0.1"/>
</linearGradient>
<linearGradient id="paint31_linear_137_4" x1="648.456" y1="699.498" x2="802.704" y2="273.717" gradientUnits="userSpaceOnUse">
<stop stop-color="#FF1CF7" stop-opacity="0.1"/>
<stop offset="0.95" stop-color="#00F0FF" stop-opacity="0.1"/>
</linearGradient>
<linearGradient id="paint32_linear_137_4" x1="639.501" y1="699.053" x2="800.339" y2="275.778" gradientUnits="userSpaceOnUse">
<stop stop-color="#FF1CF7" stop-opacity="0.1"/>
<stop offset="0.95" stop-color="#00F0FF" stop-opacity="0.1"/>
</linearGradient>
<linearGradient id="paint33_linear_137_4" x1="630.593" y1="698.554" x2="798.014" y2="277.871" gradientUnits="userSpaceOnUse">
<stop stop-color="#FF1CF7" stop-opacity="0.1"/>
<stop offset="0.95" stop-color="#00F0FF" stop-opacity="0.1"/>
</linearGradient>
<linearGradient id="paint34_linear_137_4" x1="621.734" y1="698.003" x2="795.731" y2="279.999" gradientUnits="userSpaceOnUse">
<stop stop-color="#FF1CF7" stop-opacity="0.1"/>
<stop offset="0.95" stop-color="#00F0FF" stop-opacity="0.1"/>
</linearGradient>
<linearGradient id="paint35_linear_137_4" x1="612.923" y1="697.396" x2="793.491" y2="282.161" gradientUnits="userSpaceOnUse">
<stop stop-color="#FF1CF7" stop-opacity="0.1"/>
<stop offset="0.95" stop-color="#00F0FF" stop-opacity="0.1"/>
</linearGradient>
<linearGradient id="paint36_linear_137_4" x1="604.163" y1="696.74" x2="791.294" y2="284.367" gradientUnits="userSpaceOnUse">
<stop stop-color="#FF1CF7" stop-opacity="0.1"/>
<stop offset="0.95" stop-color="#00F0FF" stop-opacity="0.1"/>
</linearGradient>
<linearGradient id="paint37_linear_137_4" x1="595.454" y1="696.031" x2="789.14" y2="286.614" gradientUnits="userSpaceOnUse">
<stop stop-color="#FF1CF7" stop-opacity="0.1"/>
<stop offset="0.95" stop-color="#00F0FF" stop-opacity="0.1"/>
</linearGradient>
<linearGradient id="paint38_linear_137_4" x1="586.796" y1="695.27" x2="787.029" y2="288.906" gradientUnits="userSpaceOnUse">
<stop stop-color="#FF1CF7" stop-opacity="0.1"/>
<stop offset="0.95" stop-color="#00F0FF" stop-opacity="0.1"/>
</linearGradient>
<linearGradient id="paint39_linear_137_4" x1="578.192" y1="694.463" x2="784.963" y2="291.25" gradientUnits="userSpaceOnUse">
<stop stop-color="#FF1CF7" stop-opacity="0.1"/>
<stop offset="0.95" stop-color="#00F0FF" stop-opacity="0.1"/>
</linearGradient>
<linearGradient id="paint40_linear_137_4" x1="569.641" y1="693.606" x2="782.939" y2="293.646" gradientUnits="userSpaceOnUse">
<stop stop-color="#FF1CF7" stop-opacity="0.1"/>
<stop offset="0.95" stop-color="#00F0FF" stop-opacity="0.1"/>
</linearGradient>
<linearGradient id="paint41_linear_137_4" x1="561.145" y1="692.701" x2="780.959" y2="296.098" gradientUnits="userSpaceOnUse">
<stop stop-color="#FF1CF7" stop-opacity="0.1"/>
<stop offset="0.95" stop-color="#00F0FF" stop-opacity="0.1"/>
</linearGradient>
<linearGradient id="paint42_linear_137_4" x1="552.706" y1="691.75" x2="779.022" y2="298.609" gradientUnits="userSpaceOnUse">
<stop stop-color="#FF1CF7" stop-opacity="0.1"/>
<stop offset="0.95" stop-color="#00F0FF" stop-opacity="0.1"/>
</linearGradient>
<linearGradient id="paint43_linear_137_4" x1="544.322" y1="690.753" x2="777.127" y2="301.184" gradientUnits="userSpaceOnUse">
<stop stop-color="#FF1CF7" stop-opacity="0.1"/>
<stop offset="0.95" stop-color="#00F0FF" stop-opacity="0.1"/>
</linearGradient>
<linearGradient id="paint44_linear_137_4" x1="535.996" y1="689.712" x2="775.274" y2="303.826" gradientUnits="userSpaceOnUse">
<stop stop-color="#FF1CF7" stop-opacity="0.1"/>
<stop offset="0.95" stop-color="#00F0FF" stop-opacity="0.1"/>
</linearGradient>
<linearGradient id="paint45_linear_137_4" x1="527.728" y1="688.625" x2="773.46" y2="306.535" gradientUnits="userSpaceOnUse">
<stop stop-color="#FF1CF7" stop-opacity="0.1"/>
<stop offset="0.95" stop-color="#00F0FF" stop-opacity="0.1"/>
</linearGradient>
<linearGradient id="paint46_linear_137_4" x1="519.52" y1="687.497" x2="771.686" y2="309.32" gradientUnits="userSpaceOnUse">
<stop stop-color="#FF1CF7" stop-opacity="0.1"/>
<stop offset="0.95" stop-color="#00F0FF" stop-opacity="0.1"/>
</linearGradient>
<linearGradient id="paint47_linear_137_4" x1="511.371" y1="686.327" x2="769.949" y2="312.18" gradientUnits="userSpaceOnUse">
<stop stop-color="#FF1CF7" stop-opacity="0.1"/>
<stop offset="0.95" stop-color="#00F0FF" stop-opacity="0.1"/>
</linearGradient>
<linearGradient id="paint48_linear_137_4" x1="503.282" y1="685.115" x2="768.249" y2="315.12" gradientUnits="userSpaceOnUse">
<stop stop-color="#FF1CF7" stop-opacity="0.1"/>
<stop offset="0.95" stop-color="#00F0FF" stop-opacity="0.1"/>
</linearGradient>
<linearGradient id="paint49_linear_137_4" x1="495.255" y1="683.866" x2="766.582" y2="318.146" gradientUnits="userSpaceOnUse">
<stop stop-color="#FF1CF7" stop-opacity="0.1"/>
<stop offset="0.95" stop-color="#00F0FF" stop-opacity="0.1"/>
</linearGradient>
<linearGradient id="paint50_linear_137_4" x1="487.29" y1="682.576" x2="764.948" y2="321.257" gradientUnits="userSpaceOnUse">
<stop stop-color="#FF1CF7" stop-opacity="0.1"/>
<stop offset="0.95" stop-color="#00F0FF" stop-opacity="0.1"/>
</linearGradient>
<linearGradient id="paint51_linear_137_4" x1="479.387" y1="681.249" x2="763.343" y2="324.458" gradientUnits="userSpaceOnUse">
<stop stop-color="#FF1CF7" stop-opacity="0.1"/>
<stop offset="0.95" stop-color="#00F0FF" stop-opacity="0.1"/>
</linearGradient>
<linearGradient id="paint52_linear_137_4" x1="471.548" y1="679.885" x2="761.765" y2="327.753" gradientUnits="userSpaceOnUse">
<stop stop-color="#FF1CF7" stop-opacity="0.1"/>
<stop offset="0.95" stop-color="#00F0FF" stop-opacity="0.1"/>
</linearGradient>
<linearGradient id="paint53_linear_137_4" x1="463.773" y1="678.485" x2="760.212" y2="331.145" gradientUnits="userSpaceOnUse">
<stop stop-color="#FF1CF7" stop-opacity="0.1"/>
<stop offset="0.95" stop-color="#00F0FF" stop-opacity="0.1"/>
</linearGradient>
<linearGradient id="paint54_linear_137_4" x1="456.062" y1="677.05" x2="758.68" y2="334.636" gradientUnits="userSpaceOnUse">
<stop stop-color="#FF1CF7" stop-opacity="0.1"/>
<stop offset="0.95" stop-color="#00F0FF" stop-opacity="0.1"/>
</linearGradient>
<linearGradient id="paint55_linear_137_4" x1="448.417" y1="675.583" x2="757.167" y2="338.232" gradientUnits="userSpaceOnUse">
<stop stop-color="#FF1CF7" stop-opacity="0.1"/>
<stop offset="0.95" stop-color="#00F0FF" stop-opacity="0.1"/>
</linearGradient>
<linearGradient id="paint56_linear_137_4" x1="440.837" y1="674.081" x2="755.668" y2="341.932" gradientUnits="userSpaceOnUse">
<stop stop-color="#FF1CF7" stop-opacity="0.1"/>
<stop offset="0.95" stop-color="#00F0FF" stop-opacity="0.1"/>
</linearGradient>
<linearGradient id="paint57_linear_137_4" x1="433.323" y1="672.55" x2="754.18" y2="345.742" gradientUnits="userSpaceOnUse">
<stop stop-color="#FF1CF7" stop-opacity="0.1"/>
<stop offset="0.95" stop-color="#00F0FF" stop-opacity="0.1"/>
</linearGradient>
<linearGradient id="paint58_linear_137_4" x1="425.876" y1="670.986" x2="752.699" y2="349.661" gradientUnits="userSpaceOnUse">
<stop stop-color="#FF1CF7" stop-opacity="0.1"/>
<stop offset="0.95" stop-color="#00F0FF" stop-opacity="0.1"/>
</linearGradient>
<linearGradient id="paint59_linear_137_4" x1="418.497" y1="669.394" x2="751.221" y2="353.696" gradientUnits="userSpaceOnUse">
<stop stop-color="#FF1CF7" stop-opacity="0.1"/>
<stop offset="0.95" stop-color="#00F0FF" stop-opacity="0.1"/>
</linearGradient>
<linearGradient id="paint60_linear_137_4" x1="411.185" y1="667.774" x2="749.742" y2="357.847" gradientUnits="userSpaceOnUse">
<stop stop-color="#FF1CF7" stop-opacity="0.1"/>
<stop offset="0.95" stop-color="#00F0FF" stop-opacity="0.1"/>
</linearGradient>
<linearGradient id="paint61_linear_137_4" x1="403.942" y1="666.129" x2="748.256" y2="362.119" gradientUnits="userSpaceOnUse">
<stop stop-color="#FF1CF7" stop-opacity="0.1"/>
<stop offset="0.95" stop-color="#00F0FF" stop-opacity="0.1"/>
</linearGradient>
<linearGradient id="paint62_linear_137_4" x1="396.767" y1="664.456" x2="746.76" y2="366.509" gradientUnits="userSpaceOnUse">
<stop stop-color="#FF1CF7" stop-opacity="0.1"/>
<stop offset="0.95" stop-color="#00F0FF" stop-opacity="0.1"/>
</linearGradient>
<linearGradient id="paint63_linear_137_4" x1="389.661" y1="662.758" x2="745.248" y2="371.021" gradientUnits="userSpaceOnUse">
<stop stop-color="#FF1CF7" stop-opacity="0.1"/>
<stop offset="0.95" stop-color="#00F0FF" stop-opacity="0.1"/>
</linearGradient>
<linearGradient id="paint64_linear_137_4" x1="382.625" y1="661.035" x2="743.715" y2="375.657" gradientUnits="userSpaceOnUse">
<stop stop-color="#FF1CF7" stop-opacity="0.1"/>
<stop offset="0.95" stop-color="#00F0FF" stop-opacity="0.1"/>
</linearGradient>
<linearGradient id="paint65_linear_137_4" x1="375.659" y1="659.29" x2="742.156" y2="380.417" gradientUnits="userSpaceOnUse">
<stop stop-color="#FF1CF7" stop-opacity="0.1"/>
<stop offset="0.95" stop-color="#00F0FF" stop-opacity="0.1"/>
</linearGradient>
<linearGradient id="paint66_linear_137_4" x1="368.762" y1="657.523" x2="740.564" y2="385.303" gradientUnits="userSpaceOnUse">
<stop stop-color="#FF1CF7" stop-opacity="0.1"/>
<stop offset="0.95" stop-color="#00F0FF" stop-opacity="0.1"/>
</linearGradient>
<linearGradient id="paint67_linear_137_4" x1="361.936" y1="655.737" x2="738.935" y2="390.317" gradientUnits="userSpaceOnUse">
<stop stop-color="#FF1CF7" stop-opacity="0.1"/>
<stop offset="0.95" stop-color="#00F0FF" stop-opacity="0.1"/>
</linearGradient>
<linearGradient id="paint68_linear_137_4" x1="355.181" y1="653.929" x2="737.263" y2="395.457" gradientUnits="userSpaceOnUse">
<stop stop-color="#FF1CF7" stop-opacity="0.1"/>
<stop offset="0.95" stop-color="#00F0FF" stop-opacity="0.1"/>
</linearGradient>
<linearGradient id="paint69_linear_137_4" x1="348.496" y1="652.107" x2="735.541" y2="400.726" gradientUnits="userSpaceOnUse">
<stop stop-color="#FF1CF7" stop-opacity="0.1"/>
<stop offset="0.95" stop-color="#00F0FF" stop-opacity="0.1"/>
</linearGradient>
<linearGradient id="paint70_linear_137_4" x1="341.883" y1="650.263" x2="733.764" y2="406.118" gradientUnits="userSpaceOnUse">
<stop stop-color="#FF1CF7" stop-opacity="0.1"/>
<stop offset="0.95" stop-color="#00F0FF" stop-opacity="0.1"/>
</linearGradient>
<linearGradient id="paint71_linear_137_4" x1="335.341" y1="648.406" x2="731.925" y2="411.639" gradientUnits="userSpaceOnUse">
<stop stop-color="#FF1CF7" stop-opacity="0.1"/>
<stop offset="0.95" stop-color="#00F0FF" stop-opacity="0.1"/>
</linearGradient>
<linearGradient id="paint72_linear_137_4" x1="328.871" y1="646.534" x2="730.019" y2="417.286" gradientUnits="userSpaceOnUse">
<stop stop-color="#FF1CF7" stop-opacity="0.1"/>
<stop offset="0.95" stop-color="#00F0FF" stop-opacity="0.1"/>
</linearGradient>
<linearGradient id="paint73_linear_137_4" x1="322.472" y1="644.649" x2="728.038" y2="423.058" gradientUnits="userSpaceOnUse">
<stop stop-color="#FF1CF7" stop-opacity="0.1"/>
<stop offset="0.95" stop-color="#00F0FF" stop-opacity="0.1"/>
</linearGradient>
<linearGradient id="paint74_linear_137_4" x1="316.145" y1="642.748" x2="725.977" y2="428.949" gradientUnits="userSpaceOnUse">
<stop stop-color="#FF1CF7" stop-opacity="0.1"/>
<stop offset="0.95" stop-color="#00F0FF" stop-opacity="0.1"/>
</linearGradient>
<linearGradient id="paint75_linear_137_4" x1="309.891" y1="640.838" x2="723.829" y2="434.963" gradientUnits="userSpaceOnUse">
<stop stop-color="#FF1CF7" stop-opacity="0.1"/>
<stop offset="0.95" stop-color="#00F0FF" stop-opacity="0.1"/>
</linearGradient>
<linearGradient id="paint76_linear_137_4" x1="303.708" y1="638.918" x2="721.587" y2="441.094" gradientUnits="userSpaceOnUse">
<stop stop-color="#FF1CF7" stop-opacity="0.1"/>
<stop offset="0.95" stop-color="#00F0FF" stop-opacity="0.1"/>
</linearGradient>
<linearGradient id="paint77_linear_137_4" x1="297.597" y1="636.989" x2="719.246" y2="447.341" gradientUnits="userSpaceOnUse">
<stop stop-color="#FF1CF7" stop-opacity="0.1"/>
<stop offset="0.95" stop-color="#00F0FF" stop-opacity="0.1"/>
</linearGradient>
<linearGradient id="paint78_linear_137_4" x1="291.559" y1="635.049" x2="716.8" y2="453.698" gradientUnits="userSpaceOnUse">
<stop stop-color="#FF1CF7" stop-opacity="0.1"/>
<stop offset="0.95" stop-color="#00F0FF" stop-opacity="0.1"/>
</linearGradient>
<linearGradient id="paint79_linear_137_4" x1="285.593" y1="633.105" x2="714.242" y2="460.166" gradientUnits="userSpaceOnUse">
<stop stop-color="#FF1CF7" stop-opacity="0.1"/>
<stop offset="0.95" stop-color="#00F0FF" stop-opacity="0.1"/>
</linearGradient>
<linearGradient id="paint80_linear_137_4" x1="279.698" y1="631.154" x2="711.566" y2="466.737" gradientUnits="userSpaceOnUse">
<stop stop-color="#FF1CF7" stop-opacity="0.1"/>
<stop offset="0.95" stop-color="#00F0FF" stop-opacity="0.1"/>
</linearGradient>
<linearGradient id="paint81_linear_137_4" x1="273.877" y1="629.198" x2="708.767" y2="473.409" gradientUnits="userSpaceOnUse">
<stop stop-color="#FF1CF7" stop-opacity="0.1"/>
<stop offset="0.95" stop-color="#00F0FF" stop-opacity="0.1"/>
</linearGradient>
<linearGradient id="paint82_linear_137_4" x1="268.127" y1="627.238" x2="705.839" y2="480.174" gradientUnits="userSpaceOnUse">
<stop stop-color="#FF1CF7" stop-opacity="0.1"/>
<stop offset="0.95" stop-color="#00F0FF" stop-opacity="0.1"/>
</linearGradient>
<linearGradient id="paint83_linear_137_4" x1="262.449" y1="625.276" x2="702.776" y2="487.031" gradientUnits="userSpaceOnUse">
<stop stop-color="#FF1CF7" stop-opacity="0.1"/>
<stop offset="0.95" stop-color="#00F0FF" stop-opacity="0.1"/>
</linearGradient>
<linearGradient id="paint84_linear_137_4" x1="256.843" y1="623.312" x2="699.574" y2="493.973" gradientUnits="userSpaceOnUse">
<stop stop-color="#FF1CF7" stop-opacity="0.1"/>
<stop offset="0.95" stop-color="#00F0FF" stop-opacity="0.1"/>
</linearGradient>
<linearGradient id="paint85_linear_137_4" x1="251.309" y1="621.348" x2="696.227" y2="500.993" gradientUnits="userSpaceOnUse">
<stop stop-color="#FF1CF7" stop-opacity="0.1"/>
<stop offset="0.95" stop-color="#00F0FF" stop-opacity="0.1"/>
</linearGradient>
<linearGradient id="paint86_linear_137_4" x1="245.846" y1="619.385" x2="692.731" y2="508.086" gradientUnits="userSpaceOnUse">
<stop stop-color="#FF1CF7" stop-opacity="0.1"/>
<stop offset="0.95" stop-color="#00F0FF" stop-opacity="0.1"/>
</linearGradient>
<linearGradient id="paint87_linear_137_4" x1="240.454" y1="617.423" x2="689.081" y2="515.245" gradientUnits="userSpaceOnUse">
<stop stop-color="#FF1CF7" stop-opacity="0.1"/>
<stop offset="0.95" stop-color="#00F0FF" stop-opacity="0.1"/>
</linearGradient>
<linearGradient id="paint88_linear_137_4" x1="235.134" y1="615.464" x2="685.274" y2="522.464" gradientUnits="userSpaceOnUse">
<stop stop-color="#FF1CF7" stop-opacity="0.1"/>
<stop offset="0.95" stop-color="#00F0FF" stop-opacity="0.1"/>
</linearGradient>
<linearGradient id="paint89_linear_137_4" x1="229.886" y1="613.511" x2="681.306" y2="529.736" gradientUnits="userSpaceOnUse">
<stop stop-color="#FF1CF7" stop-opacity="0.1"/>
<stop offset="0.95" stop-color="#00F0FF" stop-opacity="0.1"/>
</linearGradient>
<linearGradient id="paint90_linear_137_4" x1="224.707" y1="611.561" x2="677.174" y2="537.052" gradientUnits="userSpaceOnUse">
<stop stop-color="#FF1CF7" stop-opacity="0.1"/>
<stop offset="0.95" stop-color="#00F0FF" stop-opacity="0.1"/>
</linearGradient>
<linearGradient id="paint91_linear_137_4" x1="219.6" y1="609.618" x2="672.875" y2="544.406" gradientUnits="userSpaceOnUse">
<stop stop-color="#FF1CF7" stop-opacity="0.1"/>
<stop offset="0.95" stop-color="#00F0FF" stop-opacity="0.1"/>
</linearGradient>
<linearGradient id="paint92_linear_137_4" x1="214.562" y1="607.683" x2="668.407" y2="551.791" gradientUnits="userSpaceOnUse">
<stop stop-color="#FF1CF7" stop-opacity="0.1"/>
<stop offset="0.95" stop-color="#00F0FF" stop-opacity="0.1"/>
</linearGradient>
<linearGradient id="paint93_linear_137_4" x1="209.595" y1="605.756" x2="663.768" y2="559.198" gradientUnits="userSpaceOnUse">
<stop stop-color="#FF1CF7" stop-opacity="0.1"/>
<stop offset="0.95" stop-color="#00F0FF" stop-opacity="0.1"/>
</linearGradient>
<linearGradient id="paint94_linear_137_4" x1="204.697" y1="603.837" x2="658.956" y2="566.617" gradientUnits="userSpaceOnUse">
<stop stop-color="#FF1CF7" stop-opacity="0.1"/>
<stop offset="0.95" stop-color="#00F0FF" stop-opacity="0.1"/>
</linearGradient>
<linearGradient id="paint95_linear_137_4" x1="199.868" y1="601.929" x2="653.97" y2="574.044" gradientUnits="userSpaceOnUse">
<stop stop-color="#FF1CF7" stop-opacity="0.1"/>
<stop offset="0.95" stop-color="#00F0FF" stop-opacity="0.1"/>
</linearGradient>
<linearGradient id="paint96_linear_137_4" x1="195.108" y1="600.032" x2="648.81" y2="581.468" gradientUnits="userSpaceOnUse">
<stop stop-color="#FF1CF7" stop-opacity="0.1"/>
<stop offset="0.95" stop-color="#00F0FF" stop-opacity="0.1"/>
</linearGradient>
<linearGradient id="paint97_linear_137_4" x1="190.417" y1="598.148" x2="643.476" y2="588.881" gradientUnits="userSpaceOnUse">
<stop stop-color="#FF1CF7" stop-opacity="0.1"/>
<stop offset="0.95" stop-color="#00F0FF" stop-opacity="0.1"/>
</linearGradient>
<linearGradient id="paint98_linear_137_4" x1="185.794" y1="596.277" x2="637.969" y2="596.277" gradientUnits="userSpaceOnUse">
<stop stop-color="#FF1CF7" stop-opacity="0.1"/>
<stop offset="0.95" stop-color="#00F0FF" stop-opacity="0.1"/>
</linearGradient>
</defs>
</svg>
